<?xml version="1.0" standalone="no"?>
<!DOCTYPE svg PUBLIC "-//W3C//DTD SVG 20010904//EN"
 "http://www.w3.org/TR/2001/REC-SVG-20010904/DTD/svg10.dtd">
<svg version="1.0" xmlns="http://www.w3.org/2000/svg"
 width="192.000000pt" height="192.000000pt" viewBox="0 0 192.000000 192.000000"
 preserveAspectRatio="xMidYMid meet">

<g transform="translate(0.000000,192.000000) scale(0.100000,-0.100000)"
fill="#000000" stroke="none">
<path d="M159 1904 c-64 -19 -125 -82 -144 -147 -22 -75 -22 -1518 0 -1594 17
-57 64 -110 121 -139 37 -18 70 -19 824 -19 754 0 787 1 824 19 57 29 104 82
121 139 22 75 22 1519 0 1594 -17 57 -64 110 -121 139 -37 18 -72 19 -809 21
-645 2 -777 0 -816 -13z m1292 -326 c75 -34 130 -85 166 -155 29 -55 49 -113
39 -113 -3 0 -35 -6 -73 -14 -150 -30 -141 -31 -157 7 -22 53 -70 82 -137 82
-87 0 -140 -46 -141 -122 -1 -80 30 -111 243 -246 133 -84 203 -152 242 -235
78 -167 25 -351 -133 -457 -76 -51 -146 -68 -265 -63 -87 4 -109 9 -168 37
-85 41 -155 110 -208 207 -36 66 -48 79 -88 96 -65 29 -179 35 -261 13 -81
-21 -203 -84 -254 -131 l-38 -35 7 38 c4 20 13 56 20 78 8 22 54 198 104 390
102 397 122 467 151 513 29 46 76 72 134 72 43 0 53 -4 86 -37 46 -47 63 -93
151 -398 75 -262 92 -311 144 -416 64 -126 137 -185 241 -196 113 -12 184 43
184 141 0 47 -3 53 -53 100 -29 28 -104 82 -167 121 -63 38 -140 94 -172 123
-223 207 -137 552 157 626 11 3 58 4 105 2 67 -2 97 -8 141 -28z"/>
<path d="M547 910 c-14 -16 -28 -44 -32 -62 -4 -18 -9 -41 -11 -50 -5 -16 1
-17 53 -12 51 5 106 -2 158 -23 18 -6 -36 131 -62 159 -26 29 -77 23 -106 -12z"/>
</g>
</svg>
